<?xml version="1.0" encoding="utf-8"?>
<!-- Generator: Adobe Illustrator 27.0.1, SVG Export Plug-In . SVG Version: 6.00 Build 0)  -->
<svg version="1.1" id="Capa_1" xmlns="http://www.w3.org/2000/svg" xmlns:xlink="http://www.w3.org/1999/xlink" x="0px" y="0px"
	 viewBox="0 0 612 181" style="enable-background:new 0 0 612 181;" xml:space="preserve">
<style type="text/css">
	.st0{fill:#0091E2;}
</style>
<g>
	<path class="st0" d="M288.1,57.8c-3.2-0.1-5.8,2.4-5.9,5.5v28.8c-13.7-11-33.8-8.8-44.8,4.9c-4.5,5.7-7,12.7-7,20
		c-0.3,17.6,13.7,32.1,31.3,32.4s32.1-13.7,32.4-31.3V63.7c0-1.6-0.6-3.1-1.7-4.2C291.2,58.4,289.7,57.8,288.1,57.8 M280.6,124.6
		c-2,4.8-5.8,8.6-10.6,10.7c-5,2.1-10.6,2.1-15.6,0c-4.8-2-8.5-5.9-10.5-10.6c-2.1-4.9-2.1-10.5,0-15.5c2-4.8,5.8-8.6,10.5-10.6
		c5-2.1,10.6-2.1,15.6,0c4.8,2.1,8.6,5.9,10.6,10.7C282.7,114.1,282.7,119.8,280.6,124.6 M354.6,94.4c-12.4-12.4-32.6-12.4-45,0
		c-6,6-9.3,14.1-9.3,22.5c-0.3,17.6,13.7,32.1,31.3,32.4s32.1-13.7,32.4-31.3v-1.1c0-4.2-0.8-8.3-2.4-12.2S357.6,97.3,354.6,94.4
		 M350.5,124.5c-1,2.4-2.5,4.5-4.3,6.3s-4,3.3-6.3,4.3c-5,2.1-10.6,2.1-15.6,0c-4.8-2-8.6-5.9-10.6-10.6c-2.1-4.9-2.1-10.5,0-15.5
		c2-4.8,5.8-8.5,10.6-10.6c5-2.1,10.6-2.1,15.6,0c2.4,1,4.5,2.5,6.3,4.3s3.3,4,4.3,6.3C352.6,114.1,352.6,119.7,350.5,124.5
		 M486.3,90.9c0-0.8-0.2-1.6-0.5-2.3s-0.8-1.3-1.3-1.9c-0.5-0.5-1.2-1-1.9-1.3s-1.5-0.5-2.3-0.5c-1.1,0-2.2,0.3-3.2,0.9l-34,22.1
		V63.7c0-1.6-0.6-3.1-1.7-4.2s-2.6-1.8-4.2-1.8c-3.3,0-5.9,2.6-6,5.9v79.1c0,1.6,0.6,3.1,1.7,4.2c1.1,1.2,2.6,1.8,4.2,1.8
		s3.1-0.6,4.2-1.8c1.1-1.1,1.8-2.6,1.7-4.2v-20.5l6.9-4.5l26.3,29.5c1.1,1,2.5,1.6,4,1.5c0.8,0,1.6-0.1,2.3-0.5
		c0.7-0.3,1.3-0.7,1.9-1.3c0.5-0.6,1-1.2,1.3-1.9s0.5-1.5,0.5-2.3c0-1.5-0.6-3-1.6-4.1l-24.4-27.5L484,95.6
		C485.6,94.6,486.4,92.8,486.3,90.9 M387.6,102.7c1.8-1.8,4-3.3,6.4-4.3c2.5-1,5.1-1.6,7.8-1.6c2.4,0,4.7,0.4,6.9,1.2
		c2.2,0.9,4.3,2.1,6.1,3.7c1.1,0.9,2.5,1.3,3.9,1.3c1.6,0.1,3.2-0.5,4.3-1.7c1.1-1.1,1.7-2.7,1.7-4.3c0-1.7-0.7-3.4-2.1-4.5
		c-5.7-5.1-13.1-7.9-20.8-7.7c-17.6,0-31.9,14.3-31.9,31.9s14.2,31.8,31.7,31.9c7.7,0,15.1-2.7,20.9-7.7c1.2-1.1,1.9-2.7,1.9-4.4
		c0.1-3.2-2.4-5.8-5.5-5.9h-0.4c-1.4,0-2.7,0.4-3.8,1.2c-1.8,1.6-3.8,2.8-6,3.7c-2.2,0.8-4.6,1.2-6.9,1.2c-2.7,0-5.3-0.5-7.8-1.6
		c-2.4-1-4.5-2.5-6.4-4.3C379.8,123,379.8,110.4,387.6,102.7C387.6,102.8,387.6,102.8,387.6,102.7 M604.4,89c-1.2-1.1-2.5-1.9-4-2.4
		c-1.7-0.6-3.5-1-5.3-1.2s-3.6-0.3-5.4-0.3c-3.6,0-7.3,0.6-10.7,1.9c-3.4,1.2-6.5,3-9.3,5.2V91c-0.1-3.3-2.9-5.8-6.2-5.7
		c-3.1,0.1-5.6,2.6-5.7,5.7v51.9c0.1,3.3,2.9,5.8,6.2,5.7c3.1-0.1,5.6-2.6,5.7-5.7V117c0-2.7,0.5-5.3,1.6-7.8c1-2.4,2.4-4.5,4.3-6.3
		c1.8-1.8,4-3.3,6.3-4.3c2.5-1,5.1-1.6,7.8-1.6s5.3,0.5,7.8,1.4c0.8,0.4,1.6,0.6,2.5,0.6c0.8,0,1.6-0.1,2.3-0.5
		c0.7-0.3,1.3-0.7,1.9-1.3c0.5-0.5,1-1.2,1.3-1.9s0.5-1.5,0.5-2.3C606.1,91.6,605.5,90.2,604.4,89 M549.2,104.8
		c-5.1-11.8-16.7-19.5-29.5-19.6c-17.6,0-31.8,14.2-31.9,31.8c0,17.6,14.3,31.9,31.9,31.9c7.6,0,15-2.7,20.8-7.7l0.2-0.2
		c0.5-0.4,1-0.9,1.3-1.5c1.9-2.8,1.2-6.5-1.5-8.4c-2.3-1.5-5.3-1.2-7.3,0.7c-0.2,0.2-0.8,0.7-0.8,0.8l-0.1,0.1
		c-1.7,1.4-3.6,2.6-5.7,3.3c-2.2,0.8-4.5,1.2-6.9,1.1c-2.2,0-4.3-0.3-6.4-1c-2-0.7-3.9-1.6-5.6-2.9c-1.7-1.2-3.2-2.7-4.4-4.4
		c-1.3-1.7-2.2-3.7-2.8-5.7h45c1.6,0,3.1-0.6,4.2-1.7c1.2-1.1,1.8-2.6,1.7-4.2C551.5,112.8,550.7,108.6,549.2,104.8 M500.5,111.1
		c0.6-2.1,1.5-4,2.8-5.7c1.2-1.7,2.7-3.2,4.4-4.4s3.6-2.2,5.6-2.9s4.2-1,6.3-1s4.3,0.3,6.3,1c4,1.3,7.5,3.9,10,7.3
		c1.3,1.7,2.2,3.7,2.9,5.7H500.5z M584.1,140.1c-2.3,0-4.1,1.9-4.1,4.2s1.9,4.1,4.2,4.1s4.1-1.9,4.1-4.1
		C588.3,141.9,586.4,140.1,584.1,140.1z M584.1,147.5c-1.8,0.1-3.3-1.3-3.4-3.1s1.3-3.3,3.1-3.4s3.3,1.3,3.4,3.1v0.2
		C587.3,146,585.9,147.5,584.1,147.5L584.1,147.5z"/>
	<path class="st0" d="M585.1,144.4c0.5-0.1,0.8-0.5,0.8-1c0-0.4-0.1-0.7-0.4-0.9c-0.4-0.2-0.9-0.3-1.4-0.3s-1.1,0-1.6,0.1v4.1h0.9
		v-1.6h0.4c0.5,0,0.8,0.2,0.9,0.6c0.1,0.3,0.2,0.7,0.3,1h1c-0.2-0.3-0.3-0.7-0.3-1C585.8,145,585.5,144.6,585.1,144.4 M583.9,144.1
		h-0.5v-1.2h0.5c0.6,0,0.9,0.3,0.9,0.6C584.9,143.9,584.4,144.2,583.9,144.1 M219.5,71.2c-0.6-0.5-6-4.6-17.6-4.6
		c-3,0-6.1,0.3-9.1,0.8c-2.2-15.3-14.9-22.7-15.4-23.1l-3.1-1.8l-2,2.9c-2.5,3.9-4.4,8.3-5.5,12.8c-2.1,8.7-0.8,16.9,3.6,23.9
		c-5.3,3-13.9,3.7-15.7,3.8h-142c-3.7,0-6.7,3-6.7,6.7c-0.2,12.4,1.9,24.8,6.2,36.5c4.9,12.8,12.2,22.3,21.6,28.1
		c10.6,6.5,27.9,10.2,47.4,10.2c8.8,0,17.6-0.8,26.3-2.4c12.1-2.2,23.7-6.4,34.4-12.5c8.8-5.1,16.7-11.6,23.4-19.2
		c11.3-12.7,18-26.9,22.9-39.5h2c12.3,0,19.9-4.9,24.1-9.1c2.8-2.6,4.9-5.8,6.4-9.4l0.9-2.6L219.5,71.2z"/>
	<path class="st0" d="M25.9,81.8h19c0.9,0,1.7-0.7,1.7-1.7v-17c0-0.9-0.7-1.7-1.7-1.7h-19c-0.9,0-1.7,0.7-1.7,1.7v17
		C24.3,81.1,25,81.8,25.9,81.8z M52.1,81.8h19c0.9,0,1.7-0.7,1.7-1.7v-17c0-0.9-0.7-1.7-1.7-1.7h-19c-0.9,0-1.7,0.7-1.7,1.7v17
		C50.5,81.1,51.2,81.8,52.1,81.8 M78.8,81.8h19c0.9,0,1.7-0.7,1.7-1.7v-17c0-0.9-0.7-1.7-1.7-1.7h-19c-0.9,0-1.7,0.7-1.7,1.7v17
		C77.1,81.1,77.8,81.8,78.8,81.8z M105.1,81.8h19c0.9,0,1.7-0.7,1.7-1.7v-17c0-0.9-0.7-1.7-1.7-1.7h-19c-0.9,0-1.7,0.7-1.7,1.7v17
		C103.4,81.1,104.2,81.8,105.1,81.8z M52.1,57.5h19c0.9,0,1.7-0.8,1.7-1.7v-17c0-0.9-0.7-1.7-1.7-1.7h-19c-0.9,0-1.7,0.7-1.7,1.7v17
		C50.5,56.7,51.2,57.5,52.1,57.5 M78.8,57.5h19c0.9,0,1.7-0.8,1.7-1.7v-17c0-0.9-0.7-1.7-1.7-1.7h-19c-0.9,0-1.7,0.7-1.7,1.7v17
		C77.1,56.7,77.8,57.5,78.8,57.5 M105.1,57.5h19c0.9,0,1.7-0.8,1.7-1.7v-17c0-0.9-0.8-1.7-1.7-1.7h-19c-0.9,0-1.7,0.7-1.7,1.7v17
		C103.4,56.7,104.2,57.5,105.1,57.5 M105.1,33.1h19c0.9,0,1.7-0.7,1.7-1.7v-17c0-0.9-0.8-1.7-1.7-1.7h-19c-0.9,0-1.7,0.7-1.7,1.7v17
		C103.4,32.3,104.2,33.1,105.1,33.1 M131.6,81.8h19c0.9,0,1.7-0.7,1.7-1.7v-17c0-0.9-0.7-1.7-1.7-1.7h-19c-0.9,0-1.7,0.7-1.7,1.7v17
		C130,81.1,130.7,81.8,131.6,81.8"/>
</g>
</svg>
