<?xml version="1.0" encoding="utf-8"?>
<!-- Generator: Adobe Illustrator 27.0.1, SVG Export Plug-In . SVG Version: 6.00 Build 0)  -->
<svg version="1.1" id="Capa_1" xmlns="http://www.w3.org/2000/svg" xmlns:xlink="http://www.w3.org/1999/xlink" x="0px" y="0px"
	 viewBox="0 0 2037.5 2684.8" style="enable-background:new 0 0 2037.5 2684.8;" xml:space="preserve">
<style type="text/css">
	.st0{fill:#F08705;}
	.st1{fill:#DF6C0C;}
	.st2{fill:#FFFFFF;}
	.st3{fill:#333333;}
</style>
<path class="st0" d="M1947,1883.3c0,44.8-36.8,79.3-79.3,79.3H168.3c-44.8,0-79.3-36.8-79.3-79.3V183.9c0-44.8,36.8-79.3,79.3-79.3
	h1699.3c44.8,0,79.3,36.8,79.3,79.3L1947,1883.3L1947,1883.3z"/>
<path class="st1" d="M1947,1883.3c0,44.8-36.8,79.3-79.3,79.3H724.8l-370.2-376l230-376l683-848.5l677.2,697.9L1947,1883.3z"/>
<path class="st2" d="M1614.7,1142.8h-195.5l-207-351.8c46-9.2,80.5-50.6,80.5-98.9V426.5c0-56.3-44.8-101.2-101.2-101.2H846.7
	c-56.3,0-101.2,44.8-101.2,101.2v265.6c0,49.4,34.5,89.7,79.3,98.9l-207,353H422.4c-56.3,0-101.2,44.8-101.2,101.2v265.6
	c0,56.3,44.8,101.2,101.2,101.2h344.9c56.3,0,101.2-44.8,101.2-101.2v-265.6c0-56.3-44.8-101.2-101.2-101.2H734l204.7-349.5h159.8
	l205.8,349.5h-34.5c-56.3,0-101.2,44.8-101.2,101.2v265.6c0,56.3,44.8,101.2,101.2,101.2h344.9c56.3,0,101.2-44.8,101.2-101.2
	v-265.6C1715.9,1188.8,1671.1,1142.8,1614.7,1142.8L1614.7,1142.8z"/>
<path class="st3" d="M352.3,2588.1c0,2.3,0,3.4-1.1,5.7c-1.1,1.1-2.3,2.3-4.6,3.4s-5.7,1.1-9.2,2.3c-3.4,0-9.2,1.1-14.9,1.1
	c-5.7,0-11.5,0-14.9-1.1c-3.4,0-6.9-1.1-9.2-2.3c-2.3-1.1-4.6-2.3-5.7-3.4c-1.1-1.1-1.1-3.4-1.1-5.7v-28.7
	c-13.8,14.9-27.6,25.3-42.5,33.3s-31,11.5-49.4,11.5c-19.5,0-36.8-3.4-50.6-11.5c-13.8-8-25.3-18.4-33.3-31
	c-9.2-12.6-14.9-28.7-18.4-46c-3.4-17.2-5.7-35.6-5.7-55.2c0-23,2.3-43.7,6.9-63.2c4.6-18.4,12.6-34.5,21.8-47.1s21.8-23,35.6-29.9
	s31-10.3,49.4-10.3c14.9,0,27.6,3.4,40.2,9.2c11.5,5.7,24.1,14.9,35.6,26.4v-141.4c0-2.3,0-3.4,1.1-5.7c1.1-1.1,3.4-3.4,5.7-3.4
	c2.3-1.1,6.9-2.3,11.5-2.3c4.6-1.1,10.3-1.1,18.4-1.1c6.9,0,12.6,0,18.4,1.1c4.6,1.1,8,1.1,11.5,2.3c2.3,1.1,4.6,2.3,5.7,3.4
	s2.3,3.4,2.3,5.7L352.3,2588.1z M278.7,2413.3c-10.3-13.8-20.7-23-29.9-31c-9.2-6.9-19.5-10.3-29.9-10.3c-9.2,0-18.4,2.3-25.3,6.9
	c-6.9,4.6-12.6,11.5-17.2,19.5c-4.6,8-6.9,17.2-9.2,26.4c-2.3,10.3-3.4,19.5-3.4,29.9c0,11.5,1.1,21.8,2.3,32.2
	c2.3,10.3,4.6,19.5,9.2,27.6c3.4,8,9.2,14.9,16.1,19.5c6.9,4.6,14.9,6.9,25.3,6.9c4.6,0,10.3-1.1,14.9-2.3s9.2-3.4,14.9-6.9
	c4.6-3.4,10.3-8,14.9-12.6c5.7-5.7,11.5-11.5,17.2-19.5v-86.3L278.7,2413.3z M591.4,2351.2c0,6.9,0,12.6-1.1,17.2
	c0,4.6-1.1,8-2.3,10.3c-1.1,2.3-2.3,4.6-3.4,5.7c-1.1,1.1-3.4,1.1-4.6,1.1s-3.4,0-5.7-1.1c-2.3-1.1-4.6-1.1-6.9-2.3s-4.6-1.1-8-2.3
	c-3.4-1.1-5.7-1.1-9.2-1.1c-4.6,0-8,1.1-12.6,2.3c-4.6,1.1-8,4.6-12.6,8c-4.6,3.4-9.2,8-13.8,13.8c-4.6,5.7-10.3,12.6-14.9,21.8
	v163.3c0,2.3-1.1,3.4-2.3,4.6s-3.4,2.3-5.7,3.4s-6.9,1.1-11.5,2.3c-4.6,0-10.3,1.1-18.4,1.1c-6.9,0-12.6,0-18.4-1.1
	c-4.6,0-8-1.1-11.5-2.3c-2.3-1.1-4.6-2.3-5.7-3.4s-2.3-3.4-2.3-4.6v-261c0-2.3,0-3.4,1.1-4.6c1.1-1.1,2.3-2.3,5.7-3.4
	c2.3-1.1,5.7-1.1,10.3-2.3c3.4,0,9.2-1.1,14.9-1.1s11.5,0,16.1,1.1c4.6,0,6.9,1.1,9.2,2.3c2.3,1.1,3.4,2.3,4.6,3.4
	c1.1,1.1,1.1,3.4,1.1,4.6v32.2c6.9-9.2,13.8-17.2,19.5-24.1s11.5-11.5,17.2-14.9s11.5-5.7,16.1-8c5.7-1.1,11.5-2.3,16.1-2.3h8
	c3.4,0,5.7,1.1,9.2,1.1c3.4,1.1,5.7,1.1,8,2.3l4.6,2.3c1.1,1.1,2.3,2.3,2.3,3.4s1.1,2.3,1.1,4.6s1.1,4.6,1.1,9.2
	C591.4,2338.6,591.4,2343.2,591.4,2351.2L591.4,2351.2z M858.2,2589.2c0,2.3-1.1,4.6-3.4,6.9c-2.3,1.1-4.6,2.3-9.2,3.4
	s-10.3,1.1-18.4,1.1c-9.2,0-14.9,0-19.5-1.1c-3.4-1.1-6.9-2.3-8-3.4s-2.3-3.4-2.3-6.9v-20.7c-10.3,11.5-23,20.7-36.8,26.4
	c-13.8,6.9-28.7,9.2-46,9.2c-13.8,0-26.4-2.3-37.9-5.7s-21.8-9.2-29.9-16.1c-8-6.9-14.9-16.1-19.5-26.4s-6.9-23-6.9-36.8
	c0-14.9,3.4-28.7,9.2-40.2s14.9-20.7,26.4-27.6s26.4-12.6,43.7-16.1c17.2-3.4,37.9-5.7,60.9-5.7h25.3v-16.1c0-8-1.1-14.9-2.3-21.8
	c-1.1-5.7-4.6-11.5-8-14.9c-3.4-4.6-9.2-6.9-14.9-9.2c-6.9-2.3-13.8-3.4-24.1-3.4c-12.6,0-23,1.1-33.3,4.6
	c-9.2,2.3-18.4,5.7-25.3,9.2l-18.4,9.2c-4.6,2.3-9.2,4.6-12.6,4.6c-2.3,0-4.6-1.1-5.7-2.3c-1.1-1.1-3.4-3.4-4.6-5.7
	c-1.1-2.3-2.3-5.7-2.3-9.2c-1.1-3.4-1.1-8-1.1-12.6c0-5.7,0-10.3,1.1-13.8c1.1-3.4,2.3-6.9,5.7-9.2c2.3-2.3,8-5.7,13.8-9.2
	c6.9-3.4,14.9-6.9,24.1-9.2c9.2-3.4,19.5-5.7,29.9-6.9c10.3-2.3,21.8-2.3,33.3-2.3c20.7,0,37.9,2.3,52.9,5.7
	c14.9,3.4,26.4,10.3,35.6,18.4c9.2,8,16.1,19.5,20.7,32.2c4.6,12.6,6.9,28.7,6.9,47.1L858.2,2589.2z M785.7,2476.5h-27.6
	c-11.5,0-21.8,1.1-31,2.3c-8,2.3-14.9,4.6-20.7,8c-5.7,3.4-9.2,8-11.5,12.6s-3.4,10.3-3.4,17.2c0,11.5,3.4,19.5,10.3,25.3
	c6.9,5.7,16.1,9.2,28.7,9.2c10.3,0,19.5-2.3,28.7-8s17.2-12.6,26.4-23L785.7,2476.5L785.7,2476.5z M1322.7,2325.9c0,2.3,0,4.6-1.1,8
	s-1.1,8-3.4,13.8l-70.2,236.9c-1.1,3.4-2.3,5.7-3.4,8s-3.4,3.4-6.9,4.6c-3.4,1.1-8,2.3-13.8,2.3c-5.7,0-13.8,1.1-23,1.1
	s-17.2,0-23-1.1c-5.7,0-10.3-1.1-13.8-2.3c-3.4-1.1-5.7-2.3-8-4.6c-1.1-2.3-2.3-4.6-3.4-8l-43.7-158.7l-1.1-2.3l-1.1,2.3
	l-40.5,158.7c-1.1,3.4-2.3,5.7-3.4,8c-1.1,2.3-3.4,3.4-8,4.6c-3.4,1.1-8,2.3-13.8,2.3c-5.7,0-13.8,1.1-23,1.1
	c-10.3,0-17.2,0-24.1-1.1c-5.7,0-10.3-1.1-13.8-2.3c-3.4-1.1-5.7-2.3-8-4.6c-1.1-2.3-2.3-4.6-3.4-8l-69-236.8
	c-2.3-5.7-3.4-10.3-3.4-13.8c0-3.4-1.1-5.7-1.1-8s0-3.4,1.1-4.6c1.1-1.1,3.4-2.3,5.7-3.4s6.9-1.1,11.5-2.3c4.6,0,10.3-1.1,18.4-1.1
	s13.8,0,19.5,1.1c4.6,0,9.2,1.1,11.5,2.3c2.3,1.1,4.6,2.3,5.7,3.4s2.3,3.4,2.3,5.7l51.7,192l1.1,3.4l1.1-3.4l48.3-192
	c1.1-2.3,1.1-4.6,2.3-5.7c1.1-1.1,3.4-3.4,5.7-3.4c2.3-1.1,5.7-1.1,10.3-2.3c4.6,0,10.3-1.1,17.2-1.1s12.6,0,17.2,1.1
	c4.6,0,8,1.1,10.3,2.3s4.6,2.3,5.7,3.4s2.3,3.4,2.3,4.6l51.7,193.2l1.1,3.4l1.1-3.4l49.4-192c0-2.3,1.1-4.6,2.3-5.7
	c1.1-1.1,3.4-3.4,5.7-3.4c2.3-1.1,6.9-1.1,11.5-2.3c4.6,0,10.3-1.1,18.4-1.1c6.9,0,12.6,0,17.2,1.1c4.6,0,8,1.1,10.3,2.3
	c2.3,1.1,4.6,2.3,5.7,3.4C1322.7,2322.5,1322.7,2323.6,1322.7,2325.9L1322.7,2325.9z M1431.9,2555.9c0,18.4-3.4,29.9-9.2,36.8
	c-6.9,5.7-17.2,9.2-34.5,9.2c-16.1,0-27.6-3.4-34.5-9.2c-5.7-5.7-9.2-18.4-9.2-34.5c0-18.4,3.4-31,9.2-36.8
	c6.9-5.7,18.4-9.2,34.5-9.2s27.6,3.4,33.3,9.2C1429.6,2526,1431.9,2538.6,1431.9,2555.9L1431.9,2555.9z"/>
<path class="st0" d="M1587.1,2237.4c0,14.9-3.4,25.3-9.2,31c-5.7,5.7-17.2,8-33.3,8s-27.6-2.3-33.3-8s-9.2-14.9-9.2-29.9
	s3.4-25.3,9.2-31s17.2-9.2,33.3-9.2s27.6,2.3,33.3,8C1584.8,2213.2,1587.1,2223.6,1587.1,2237.4L1587.1,2237.4z M1582.5,2588.1
	c0,2.3-1.1,3.4-2.3,4.6c-1.1,1.1-3.4,2.3-5.7,3.4s-6.9,1.1-11.5,2.3c-4.6,0-10.3,1.1-18.4,1.1c-6.9,0-12.6,0-18.4-1.1
	c-4.6,0-8-1.1-11.5-2.3c-2.3-1.1-4.6-2.3-5.7-3.4s-2.3-3.4-2.3-4.6v-261c0-2.3,1.1-3.4,2.3-4.6c1.1-1.1,3.4-2.3,5.7-3.4
	s6.9-2.3,11.5-2.3c4.6-1.1,10.3-1.1,18.4-1.1s12.6,0,18.4,1.1c4.6,1.1,8,1.1,11.5,2.3c2.3,1.1,4.6,2.3,5.7,3.4s2.3,3.4,2.3,4.6
	V2588.1z M1924,2454.7c0,21.8-3.4,42.5-9.2,60.9c-5.7,18.4-14.9,34.5-26.4,47.1c-11.5,13.8-26.4,23-44.8,31
	c-18.4,6.9-39.1,10.3-63.2,10.3c-23,0-43.7-3.4-60.9-9.2c-17.2-6.9-31-16.1-42.5-27.6c-11.5-12.6-19.5-27.6-25.3-46
	c-5.7-18.4-8-37.9-8-62.1c0-21.8,3.4-42.5,9.2-60.9c5.7-18.4,14.9-34.5,26.4-47.1s26.4-23,44.8-31c18.4-6.9,39.1-10.3,63.2-10.3
	c23,0,43.7,3.4,60.9,9.2c17.2,6.9,31,16.1,42.5,27.6c11.5,12.6,19.5,27.6,25.3,46C1920.6,2411,1924,2431.7,1924,2454.7z
	 M1848.1,2457c0-12.6-1.1-25.3-3.4-35.6s-5.7-20.7-10.3-28.7s-11.5-13.8-19.5-18.4s-18.4-6.9-31-6.9c-11.5,0-20.7,2.3-28.7,5.7
	s-14.9,10.3-20.7,17.2c-5.7,8-9.2,17.2-11.5,27.6c-2.3,10.3-3.4,23-3.4,36.8c0,12.6,1.1,25.3,3.4,35.6s5.7,20.7,10.3,28.7
	s11.5,13.8,19.5,18.4s18.4,6.9,31,6.9c11.5,0,20.7-2.3,28.7-5.7s14.9-10.3,20.7-17.2c5.7-8,9.2-17.2,11.5-27.6
	S1848.1,2470.8,1848.1,2457z"/>
</svg>
