<?xml version="1.0" encoding="utf-8"?>
<!-- Generator: Adobe Illustrator 27.0.1, SVG Export Plug-In . SVG Version: 6.00 Build 0)  -->
<svg version="1.1" id="Capa_1" xmlns="http://www.w3.org/2000/svg" xmlns:xlink="http://www.w3.org/1999/xlink" x="0px" y="0px"
	 viewBox="0 0 107 44.2" style="enable-background:new 0 0 107 44.2;" xml:space="preserve">
<style type="text/css">
	.st0{fill-rule:evenodd;clip-rule:evenodd;fill:#EA2845;}
	.st1{fill:#EA2845;}
</style>
<path class="st0" d="M25.2,2c-0.3,0-0.6,0.1-0.8,0.2c0.5,0.4,0.8,0.8,1,1.4c0,0.1,0,0.1,0,0.2c0,0.1,0,0.1,0,0.2
	c0,0.9-0.2,1-0.4,1.6c-0.3,0.7-0.2,1.4,0.1,2.1c0,0.1,0.1,0.2,0.1,0.2c-0.4-2.6,1.8-3,2.2-3.9c0-0.8-0.6-1.2-1-1.5
	C26,2.1,25.6,2,25.2,2L25.2,2z M28.5,2.6c0,0.2,0,0.2,0,0.3l0,0.3l-0.1,0.2c0,0.1-0.1,0.2-0.1,0.2l-0.1,0.2c0,0-0.1,0.1-0.1,0.1
	L28,4.1l-0.2,0.2c-0.1,0.1-0.1,0.1-0.2,0.2c-0.1,0.1-0.1,0.1-0.2,0.2C27.3,4.9,27,5,26.8,5.2c-0.1,0.1-0.2,0.1-0.2,0.2
	c-0.1,0.1-0.1,0.1-0.2,0.2s-0.1,0.1-0.2,0.2S26.1,5.8,26,5.9l-0.2,0.2l-0.1,0.2l-0.1,0.2l-0.1,0.3c0,0,0,0.1,0,0.1s0,0.1,0,0.1
	l0,0.3c0,0.1,0,0.1,0,0.2c0,0.1,0,0.2,0,0.3s0,0.2,0.1,0.2l0.1,0.2c0,0.1,0.1,0.1,0.1,0.2l-2.4-0.9l-1.2-0.3l-0.7-0.2
	c-0.6-0.1-1.3-0.2-1.9-0.3c-0.6-0.1-1.3-0.1-1.9-0.1l-1.4,0.1c-0.6,0-1.3,0.1-1.9,0.2L14,7.1l-0.9,0.2l-0.5,0.1l-0.5,0.2l-0.3,0.2
	l-0.3,0.2c0,0-0.1,0-0.1,0l-0.3,0.2c-0.1,0-0.2,0.1-0.2,0.1c0,0-0.1,0-0.1,0.1l-0.3,0.2c-0.1,0.1-0.2,0.1-0.2,0.2L10,8.7L9.8,8.9
	L9.6,9C9.5,9.1,9.5,9.2,9.4,9.2L9.2,9.4L9,9.6L8.8,9.8c0,0-0.1,0-0.1,0.1C8.7,9.9,8.6,10,8.5,10.1l-0.3,0.3l-0.6,0.5
	c-0.2,0.2-0.4,0.3-0.6,0.5l-0.6,0.4c-0.2,0.1-0.4,0.2-0.7,0.3c-0.2,0.1-0.5,0.2-0.7,0.2c-0.4,0.1-0.9,0.3-1.3,0.3
	c-0.1,0-0.2,0-0.3,0l-0.3,0.1l-0.2,0.1c-0.1,0-0.2,0.1-0.2,0.1S2.7,13,2.6,13.1c-0.1,0.1-0.1,0.1-0.2,0.2c-0.1,0.1-0.2,0.1-0.2,0.2
	L2,13.7c-0.1,0.1-0.1,0.2-0.2,0.2c0,0.1-0.1,0.2-0.2,0.2l-0.1,0.3l-0.1,0.3l-0.1,0.2c0,0.1,0,0.2,0,0.3s0,0.1,0,0.2c0,0,0,0.1,0,0.1
	c0,0.1,0,0.1,0,0.2L1.5,16c0,0.1,0.1,0.1,0.1,0.2l0.1,0.2L2,16.5c0.1,0.1,0.1,0.1,0.2,0.2c0.2,0.2,0.3,0.3,0.6,0.5
	c0.1,0,0.1,0.1,0.2,0.1C3,17.4,3,17.5,3,17.5c0,0.1,0.1,0.2,0.1,0.2L3.2,18l0.2,0.3l0.2,0.2l0.2,0.2c0.1,0.1,0.1,0.1,0.2,0.2L4.1,19
	c0.1,0.1,0.2,0.1,0.2,0.1c0.1,0,0.2,0.1,0.2,0.1c0.1,0,0.1,0.1,0.2,0.1s0.1,0,0.2,0.1c0,0.6,0,1.1,0,1.3c0.1,0.2,0.6-0.4,1-1.2
	c-0.1,0.8-0.1,1.6,0,1.8c0.1,0.2,0.7-0.6,1.3-1.5c7.4-1.7,14.1,3.4,14.9,10.6c-0.1-1.1-1.5-1.7-2.2-1.6c-0.3,0.8-0.8,1.8-1.7,2.4
	c0.1-0.7,0-1.4-0.1-2.1c-0.2,1-0.7,1.9-1.3,2.6c-1,0.1-1.9-0.4-2.5-1.1c0,0-0.1-0.1-0.1-0.1l-0.1-0.3c0-0.1-0.1-0.2-0.1-0.2
	s0-0.2,0-0.2v-0.2c0-0.1,0-0.2,0.1-0.2l0.1-0.2c0-0.1,0.1-0.2,0.1-0.2c0.2-0.5,0.2-0.9-0.2-1.1c-0.1,0-0.1-0.1-0.2-0.1
	c0,0-0.1,0-0.1,0l-0.1,0l-0.2-0.1c-0.1,0-0.1,0-0.2,0c-0.1,0-0.2,0-0.2,0c-0.1,0-0.1,0-0.2,0c-0.1,0-0.2,0-0.2,0l-0.2,0l-0.2,0.1
	l-0.2,0.1L11.9,28c-2.4,1.6-1,5.3,0.7,6.4c-0.6,0.1-1.3,0.2-1.4,0.4c0.4,0.3,0.9,0.5,1.4,0.8l1.7,0.5c0.9,0.2,1.7,0.3,2.6,0.2
	c4.6-0.3,8.4-3.8,9.1-8.5L26,28l0.1,0.6c0,0.1,0,0.2,0,0.3l0,0.3l0,0.3v0.2c0,0.1,0,0.1,0,0.2c0,0.1,0,0.1,0,0.2v0.2
	c0,0.1,0,0.1,0,0.2c0,0,0,0.1,0,0.1l0,0.2c0,0,0,0.1,0,0.1l0,0.2c0,0,0,0.1,0,0.1l0,0.3v0L26,31.8l-0.1,0.3l-0.2,0.6l-0.1,0.3
	l-0.2,0.6L25.3,34l-0.2,0.3c0,0,0,0.1,0,0.1c-0.7,1.4-1.7,2.6-3,3.5c-0.1,0.1-0.2,0.1-0.2,0.2c0,0-0.1,0-0.1,0.1l-0.2,0.2l0,0.1h0
	l0.4-0.1h0l0.8-0.2c0.1,0,0.2,0,0.2-0.1l0.2,0l0.2,0l0.2-0.1c1-0.3,2-0.6,3-1c-1.7,2.3-3.9,4.1-6.5,5.3c1.2-0.1,2.4-0.3,3.6-0.6
	c4.2-1.2,7.7-4.1,9.9-7.9c-0.4,2.4-1.4,4.7-2.8,6.7c1-0.7,1.9-1.4,2.8-2.3c2.3-2.4,3.9-5.5,4.4-8.9c0.4,1.6,0.5,3.3,0.3,5
	C45.9,23.8,39,12.9,36.1,10c0,0.1-0.1,0.2-0.1,0.3l-0.1,0.7l-0.2,0.7l-0.2,0.7l-0.3,0.6l-0.4,0.6l-0.4,0.6c-0.2,0.2-0.3,0.4-0.5,0.5
	L33.6,15l-0.2,0.2c-0.2,0.1-0.4,0.3-0.6,0.4L32.1,16l-0.7,0.3c-0.2,0.1-0.4,0.2-0.7,0.2l-0.7,0.2c-0.2,0-0.5,0.1-0.7,0.1l-0.5,0
	c-0.2,0-0.5,0-0.7,0c-0.2,0-0.5-0.1-0.7-0.1c-0.2,0-0.5-0.1-0.7-0.2h0l0.7-0.1l0.7-0.2l0.7-0.2c0.2-0.1,0.5-0.2,0.7-0.3
	c0.2-0.1,0.4-0.2,0.6-0.3l0.6-0.4c0.2-0.1,0.4-0.3,0.5-0.5c0.2-0.2,0.3-0.3,0.5-0.5l0.4-0.6c0,0,0-0.1,0.1-0.1l0.3-0.5l0.3-0.6
	l0.2-0.7c0.1-0.2,0.1-0.5,0.2-0.7l0.1-0.7l0-0.7l0-0.5l-0.1-0.7l-0.2-0.7l-0.2-0.7c-0.1-0.2-0.2-0.4-0.3-0.6l-0.4-0.6L31.9,5
	l-0.5-0.5l-0.3-0.3l-1.4-1c-0.1,0-0.1-0.1-0.2-0.1C29.2,2.9,28.8,2.8,28.5,2.6L28.5,2.6z"/>
<path class="st1" d="M49.4,29.2c0.2-0.1,0.5-0.2,0.8-0.3c0.6-0.1,0.9-0.2,1-0.2c0.2-0.1,0.3-0.2,0.3-0.3c0.1-0.2,0.1-0.7,0.1-1.4
	v-1.4l0-1.1l0-1.7v-1c0-0.7,0-1.2-0.2-1.6c0-0.2-0.2-0.3-0.4-0.5c-0.3-0.2-0.8-0.4-1.5-0.6l0-0.8l0.4-0.1c0.1,0,0.5-0.1,1.3-0.3
	l1.1-0.4l0.3-0.1c0.1-0.1,0.3-0.2,0.4-0.3c0.4-0.3,0.8-0.7,1.1-1.2l0.8-0.1l0,1.8c0,0.2,0,0.3,0,0.4l0,0.7c0.9-0.8,1.7-1.3,2.4-1.6
	c0.8-0.4,1.8-0.6,2.7-0.6c0.9,0,1.8,0.2,2.6,0.7c0.7,0.5,1.2,1.1,1.5,1.7s0.3,2,0.3,3.9l-0.1,5.2c0,0.2,0,0.4,0.1,0.6
	c0.3,0.1,0.6,0.2,0.9,0.2l0.8,0.1c0.1,0.1,0.1,0.3,0.1,0.5l0,0.5l-3.1-0.2l-0.9,0h-0.7L59.4,30h-0.5c0-0.1,0-0.2,0-0.3l0-0.6
	c0.1,0,0.5-0.1,1.1-0.2c0.2,0,0.3-0.1,0.5-0.1c0.2-0.1,0.3-0.2,0.4-0.3c0.1-0.2,0.1-0.5,0.1-1l0-2.1l0-1.8c0-2.3-0.1-3.6-0.4-4.2
	c-0.4-0.8-1-1.2-1.8-1.2c-0.6,0-1.3,0.2-1.8,0.5c-0.7,0.4-1.4,0.8-2,1.4l0,0.3l0,1l0,1.1l0.1,2.6l0,0.4c0,1.7,0.1,2.7,0.2,2.9
	s0.7,0.5,1.6,0.7l0,0.4c0,0.1,0,0.3-0.1,0.6l-0.8,0c-0.4,0-0.7,0-1-0.1l-1.7,0L49.4,30c0-0.1-0.1-0.2-0.1-0.3L49.4,29.2L49.4,29.2z
	 M68.1,21.6c0.3-0.9,0.5-1.5,0.7-1.8c0.6-0.9,1.2-1.5,1.9-2c0.7-0.5,1.3-0.8,1.8-1c0.6-0.2,1.1-0.3,1.7-0.3c0.8,0,1.6,0.1,2.4,0.2
	c0.6,0.1,1.1,0.3,1.6,0.7c0.5,0.4,1,0.8,1.4,1.3c0.4,0.4,0.7,1,0.9,1.5c0.3,0.7,0.4,1.4,0.4,2.1l-1.8,0c-1.1,0-2.1-0.1-3.2-0.1
	L74.7,22l-1.7,0h-1.4l0,0.4c0,0.6,0.1,1.2,0.2,1.8c0.1,0.6,0.3,1.2,0.6,1.6c0.3,0.5,0.6,0.9,1,1.2c0.4,0.3,0.8,0.6,1.3,0.7l0.9,0.3
	l1.6-0.1c0.5-0.1,0.9-0.2,1.3-0.4c0.5-0.2,1-0.5,1.4-0.9l1,0.8c-0.9,1-1.9,1.8-2.9,2.3c-1,0.5-2.1,0.7-3.4,0.7
	c-0.8,0-1.5-0.1-2.1-0.2c-0.7-0.2-1.3-0.5-1.9-0.9c-0.6-0.4-1.1-0.9-1.5-1.5c-0.5-0.6-0.7-1.2-0.9-1.8c-0.3-0.8-0.4-1.5-0.4-1.9
	C67.8,23.3,67.9,22.5,68.1,21.6L68.1,21.6z M77.3,20.9c0-0.6-0.1-1.2-0.3-1.7s-0.6-1-1-1.2c-0.4-0.3-0.9-0.4-1.4-0.5
	c-0.8,0-1.3,0.3-1.9,0.9c-0.6,0.6-0.9,1.5-1,2.6l3.6,0l1,0l0.7,0L77.3,20.9L77.3,20.9z M83.4,25.5c0.2-0.1,0.5-0.1,0.7-0.1l0.3,0
	l0.1,0.2l1.1,1.8c0.4,0.4,0.7,0.8,1.1,1c0.2,0.2,0.6,0.3,1.1,0.5c0.4,0.1,0.7,0.2,1.1,0.2c0.6,0,1.2-0.2,1.7-0.6
	c0.5-0.4,0.8-0.9,0.8-1.4c0-0.3-0.1-0.6-0.3-0.9c-0.2-0.2-0.5-0.5-1.1-0.8c-0.3-0.1-0.9-0.3-2-0.6l-1.8-0.5
	c-0.5-0.2-0.9-0.5-1.3-0.8c-0.4-0.3-0.7-0.7-0.9-1.2c-0.3-0.6-0.4-1.1-0.4-1.5c0-0.8,0.1-1.5,0.3-2c0.2-0.5,0.6-1,1-1.4
	c0.3-0.3,0.8-0.6,1.4-0.8c0.6-0.2,1.3-0.4,2-0.4c0.9,0,1.8,0.1,2.7,0.2c0.7,0.1,1.3,0.3,1.9,0.6c0.1,0.2,0.2,0.8,0.3,1.7l0.2,1.6
	c0,0.1,0,0.2,0,0.2c-0.2,0.1-0.5,0.1-0.7,0.1c-0.1,0-0.3,0-0.5,0c-0.1-0.2-0.3-0.4-0.4-0.7c-0.5-1-1-1.6-1.6-2
	c-0.5-0.4-1.1-0.6-1.9-0.6s-1.3,0.2-1.8,0.6c-0.4,0.3-0.6,0.8-0.5,1.3c0,0.3,0.2,0.7,0.6,1.1c0.4,0.4,1,0.7,1.9,0.8
	c1.4,0.3,2.4,0.6,3.1,0.9c1,0.4,1.6,1,2,1.6c0.4,0.6,0.6,1.3,0.6,2.1c0,1.2-0.5,2.3-1.4,3.1c-0.9,0.8-2.3,1.2-4.1,1.2
	c-0.6,0-1.2-0.1-1.8-0.2c-0.4,0-1-0.2-1.6-0.3c-0.4-0.1-0.8-0.3-1.2-0.5c-0.1-0.1-0.2-0.1-0.3-0.2c0-0.1-0.1-0.5-0.2-1.3l-0.3-2.3
	L83.4,25.5z M96.5,17.9c1.2-0.5,2.2-1,2.7-1.5c0.6-0.5,1.2-1.3,1.8-2.5h0.9c0.1,0.3,0.1,0.6,0.1,0.9l0,1.3l0,0.9l0,0.4l0.4,0
	l1.5-0.1l1.2,0c0.1,0.2,0.1,0.5,0.1,0.8c0,0.3,0,0.5-0.1,0.9c-0.3,0-0.5,0.1-0.8,0.1c-0.1,0-0.3,0-0.5,0h-0.8l-0.3,0l-0.8,0l0,6
	l0.1,2.2c0.1,0.3,0.2,0.6,0.4,0.8c0.3,0.1,0.5,0.2,0.8,0.2c0.3,0,0.5,0,0.6-0.1s0.4-0.2,0.7-0.5c0.1-0.1,0.2-0.1,0.3-0.2
	c0.2,0.2,0.5,0.4,0.6,0.6l0.1,0.2c-0.4,0.6-0.9,1.1-1.6,1.4c-0.7,0.3-1.4,0.5-2.1,0.5c-1,0-1.8-0.3-2.4-0.9
	c-0.6-0.6-0.9-1.6-0.9-2.9l0.1-2.8V19l-0.5,0l-1.2,0l-0.2,0c-0.1-0.1-0.1-0.2-0.1-0.3L96.5,17.9L96.5,17.9z"/>
</svg>
