<?xml version="1.0" encoding="utf-8"?>
<!-- Generator: Adobe Illustrator 27.0.1, SVG Export Plug-In . SVG Version: 6.00 Build 0)  -->
<svg version="1.1" id="katman_1" xmlns="http://www.w3.org/2000/svg" xmlns:xlink="http://www.w3.org/1999/xlink" x="0px" y="0px"
	 viewBox="0 0 436 170" style="enable-background:new 0 0 436 170;" xml:space="preserve">
<style type="text/css">
	.st0{fill-rule:evenodd;clip-rule:evenodd;}
</style>
<path d="M200.2,114.4V74.7h0.7l28.6,39.7h9V56.1h-10v39.6h-0.7l-28.6-39.6h-9v58.3L200.2,114.4L200.2,114.4z M266.8,115.3
	c13.2,0,21.3-8.6,21.3-23c0-14.3-8.1-23-21.3-23c-13.1,0-21.3,8.7-21.3,23C245.6,106.7,253.6,115.3,266.8,115.3z M266.8,106.9
	c-7,0-11-5.3-11-14.6c0-9.2,4-14.6,11-14.6s11,5.4,11,14.6C277.8,101.6,273.8,106.9,266.8,106.9z M297.2,59.4v11.1h-7v8h7v24.1
	c0,8.6,4,12,14.2,12c1.9,0,3.8-0.2,5.3-0.5v-7.8c-1.2,0.1-2,0.2-3.4,0.2c-4.2,0-6.1-1.9-6.1-6.3V78.5h9.5v-8h-9.5V59.4H297.2
	L297.2,59.4z M322.7,114.4h10V70.2h-10V114.4z M327.7,62.9c3.3,0,6-2.7,6-6c0-3.4-2.7-6.1-6-6.1s-6,2.7-6,6.1
	C321.7,60.2,324.4,62.9,327.7,62.9L327.7,62.9z M360.1,115.3c13.2,0,21.3-8.6,21.3-23c0-14.3-8.1-23-21.3-23
	c-13.1,0-21.3,8.7-21.3,23C338.8,106.7,346.8,115.3,360.1,115.3z M360.1,106.9c-7,0-11-5.3-11-14.6c0-9.2,4-14.6,11-14.6
	c6.9,0,11,5.4,11,14.6C371,101.6,367,106.9,360.1,106.9z M387.3,114.4h10V88.7c0-6.5,3.8-10.6,9.7-10.6c6.1,0,8.9,3.4,8.9,10.1v26.2
	h10V85.8c0-10.6-5.4-16.5-15.2-16.5c-6.6,0-11,3-13.1,8h-0.7v-7.1h-9.7C387.3,70.2,387.3,114.4,387.3,114.4z"/>
<g>
	<path class="st0" d="M37,38.1c4.7,3.8,6.4,3.5,15.2,2.9l82.9-5c1.8,0,0.3-1.8-0.3-2L121,24.1c-2.6-2-6.2-4.4-12.9-3.8l-80.2,5.9
		c-2.9,0.3-3.5,1.8-2.3,2.9L37,38.1z M42,57.4v87.2c0,4.7,2.3,6.4,7.6,6.1l91.1-5.3c5.3-0.3,5.9-3.5,5.9-7.3V51.5
		c0-3.8-1.5-5.9-4.7-5.6l-95.2,5.6C43.2,51.8,42,53.6,42,57.4L42,57.4z M131.9,62.1c0.6,2.6,0,5.3-2.6,5.6l-4.4,0.9V133
		c-3.8,2-7.3,3.2-10.3,3.2c-4.7,0-5.9-1.5-9.4-5.9L76.5,85.2v43.6l9.1,2c0,0,0,5.3-7.3,5.3l-20.2,1.2c-0.6-1.2,0-4.1,2-4.7l5.3-1.5
		V73.5l-7.3-0.6c-0.6-2.6,0.9-6.4,5-6.7l21.7-1.5l29.9,45.6V70l-7.6-0.9c-0.6-3.2,1.8-5.6,4.7-5.9L131.9,62.1z M21.2,18.2l83.5-6.1
		c10.2-0.9,12.9-0.3,19.3,4.4l26.6,18.7c4.4,3.2,5.9,4.1,5.9,7.6v102.7c0,6.4-2.3,10.2-10.5,10.8l-96.9,5.9
		c-6.2,0.3-9.1-0.6-12.3-4.7L17.1,132c-3.5-4.7-5-8.2-5-12.3V28.4C12.1,23.1,14.5,18.8,21.2,18.2z"/>
</g>
</svg>
