<?xml version="1.0" encoding="utf-8"?>
<!-- Generator: Adobe Illustrator 27.0.1, SVG Export Plug-In . SVG Version: 6.00 Build 0)  -->
<svg version="1.1" id="Capa_1" xmlns="http://www.w3.org/2000/svg" xmlns:xlink="http://www.w3.org/1999/xlink" x="0px" y="0px"
	 viewBox="0 0 517 220" style="enable-background:new 0 0 517 220;" xml:space="preserve">
<style type="text/css">
	.st0{fill:#CB3837;}
	.st1{fill:#FFFFFF;}
</style>
<path class="st0" d="M7,12h500v166.7H257v27.8H145.9v-27.8H7V12z M34.8,150.9h55.6V67.6h27.8v83.3h27.8V39.8H34.8V150.9L34.8,150.9z
	 M173.7,39.8v138.9h55.6v-27.8h55.5V39.8H173.7z M229.2,67.6H257v55.6h-27.8V67.6z M312.5,39.8v111.1h55.6V67.6h27.8v83.3h27.8V67.6
	h27.8v83.3h27.8V39.8H312.5z"/>
<path class="st1" d="M34.8,150.9h55.6V67.6h27.8v83.3h27.8V39.8H34.8V150.9L34.8,150.9z M173.7,39.8v138.9h55.6v-27.8h55.5V39.8
	H173.7z M257,123.1h-27.8V67.6H257V123.1z M312.5,39.8v111.1h55.6V67.6h27.8v83.3h27.8V67.6h27.8v83.3h27.8V39.8H312.5z"/>
</svg>
