<?xml version="1.0" encoding="utf-8"?>
<!-- Generator: Adobe Illustrator 27.0.1, SVG Export Plug-In . SVG Version: 6.00 Build 0)  -->
<svg version="1.1" id="Capa_1" xmlns="http://www.w3.org/2000/svg" xmlns:xlink="http://www.w3.org/1999/xlink" x="0px" y="0px"
	 viewBox="0 0 90.6 47.3" style="enable-background:new 0 0 90.6 47.3;" xml:space="preserve">
<style type="text/css">
	.st0{fill:#00749A;}
</style>
<g>
	<path class="st0" d="M40.9,37.9h-4.6v0.5c1.4,0,1.7,0.3,1.7,2.1v3.3c0,1.8-0.2,2.2-1.7,2.2c-1.1-0.1-1.9-0.8-2.9-1.9l-1.2-1.3
		c1.6-0.3,2.5-1.3,2.5-2.4c0-1.4-1.2-2.5-3.5-2.5h-4.5v0.5c1.4,0,1.7,0.3,1.7,2.1v3.3c0,1.8-0.2,2.2-1.7,2.2v0.5h5.1v-0.5
		c-1.4,0-1.7-0.3-1.7-2.2v-0.9h0.4l2.8,3.6h7.5c3.7,0,5.3-2,5.3-4.3C46.2,39.8,44.6,37.9,40.9,37.9L40.9,37.9z M30.1,42.1v-3.4h1.1
		c1.2,0,1.7,0.8,1.7,1.7s-0.5,1.7-1.7,1.7L30.1,42.1z M41,45.6h-0.2c-0.9,0-1.1-0.2-1.1-1.4v-5.6H41c2.7,0,3.2,2,3.2,3.5
		C44.2,43.7,43.7,45.6,41,45.6L41,45.6z M12.3,43l1.8-5.2c0.5-1.5,0.3-2-1.3-2v-0.5h4.9v0.5c-1.6,0-2,0.4-2.6,2.3L12,46.9h-0.4
		l-2.6-8l-2.6,8H6l-2.8-8.8c-0.6-1.9-1-2.3-2.5-2.3v-0.5h5.7v0.5c-1.5,0-1.9,0.3-1.4,2L6.7,43l2.6-7.8h0.5L12.3,43z M21.1,46.8
		c-2.8,0-5.2-2.1-5.2-4.6c0-2.5,2.3-4.6,5.2-4.6s5.2,2.1,5.2,4.6S23.9,46.8,21.1,46.8z M21.1,38.3c-2.4,0-3.2,2.1-3.2,3.8
		s0.8,3.8,3.2,3.8c2.4,0,3.2-2.1,3.2-3.8C24.3,40.5,23.5,38.3,21.1,38.3z M52.6,45.9v0.5h-5.9v-0.5c1.7,0,2-0.4,2-3v-4.1
		c0-2.6-0.3-3-2-3v-0.5H52c2.6,0,4.1,1.3,4.1,3.2c0,1.8-1.5,3.2-4.1,3.2h-1.4v1.3C50.5,45.5,50.8,45.9,52.6,45.9L52.6,45.9z
		 M52,36.2h-1.4v4.5H52c1.4,0,2.1-1,2.1-2.2S53.4,36.2,52,36.2z M73.8,44l-0.1,0.5c-0.2,0.9-0.5,1.2-2.4,1.2h-0.3
		c-1.3,0-1.6-0.3-1.6-2.1v-1.2c2,0,2.2,0.2,2.2,1.5H72V40h-0.5c0,1.3-0.1,1.5-2.2,1.5v-2.9h1.4c1.8,0,2.1,0.3,2.4,1.2l0.1,0.5h0.4
		l-0.2-2.4h-7.6v0.5c1.4,0,1.7,0.3,1.7,2.1v3.3c0,1.7-0.2,2.1-1.3,2.2c-1.1-0.1-1.8-0.8-2.8-1.9l-1.2-1.3c1.6-0.3,2.5-1.3,2.5-2.4
		c0-1.4-1.2-2.5-3.5-2.5h-4.5v0.5c1.4,0,1.7,0.3,1.7,2.1v3.3c0,1.8-0.2,2.2-1.7,2.2v0.5h5.1v-0.5c-1.4,0-1.7-0.3-1.7-2.2v-0.9h0.4
		l2.8,3.6H74l0.1-2.4L73.8,44L73.8,44z M60.2,42.1v-3.4h1.1c1.2,0,1.7,0.8,1.7,1.7s-0.5,1.7-1.7,1.7H60.2z"/>
	<g>
		<path id="B" class="st0" d="M79,46.8c-1,0-1.9-0.5-2.3-0.9c-0.1,0.1-0.3,0.5-0.4,0.9h-0.5v-3.6h0.5c0.2,1.7,1.4,2.7,2.9,2.7
			c0.8,0,1.5-0.5,1.5-1.2c0-0.7-0.6-1.2-1.6-1.7l-1.4-0.7c-1-0.5-1.8-1.3-1.8-2.5c0-1.2,1.2-2.3,2.7-2.3c0.9,0,1.6,0.3,2,0.7
			c0.1-0.1,0.2-0.4,0.3-0.7h0.5v3h-0.5c-0.2-1.2-0.9-2.2-2.2-2.2c-0.7,0-1.4,0.4-1.4,1.1c0,0.7,0.5,1,1.8,1.6l1.4,0.7
			c1.2,0.6,1.7,1.5,1.7,2.3C82.2,45.6,80.8,46.8,79,46.8L79,46.8z"/>
	</g>
	<g>
		<path id="B_00000049185445957290555060000007682401035990662316_" class="st0" d="M87,46.8c-1,0-1.9-0.5-2.3-0.9
			c-0.1,0.1-0.3,0.5-0.4,0.9h-0.5v-3.6h0.5c0.2,1.7,1.4,2.7,2.9,2.7c0.8,0,1.5-0.5,1.5-1.2c0-0.7-0.6-1.2-1.6-1.7l-1.4-0.7
			c-1-0.5-1.8-1.3-1.8-2.5c0-1.2,1.2-2.3,2.7-2.3c0.9,0,1.6,0.3,2,0.7c0.1-0.1,0.2-0.4,0.3-0.7h0.5v3h-0.5c-0.2-1.2-0.9-2.2-2.2-2.2
			c-0.7,0-1.4,0.4-1.4,1.1c0,0.7,0.5,1,1.8,1.6l1.4,0.7c1.2,0.6,1.7,1.5,1.7,2.3C90.1,45.6,88.7,46.8,87,46.8L87,46.8z"/>
	</g>
	<path class="st0" d="M32.2,16.5c0,5.2,3,9.7,7.4,11.9l-6.2-17.2C32.7,12.8,32.2,14.6,32.2,16.5L32.2,16.5z M54.3,15.8
		c0-1.6-0.6-2.8-1.1-3.6c-0.7-1.1-1.3-2-1.3-3.1c0-1.2,0.9-2.3,2.2-2.3h0.2c-2.3-2.2-5.5-3.4-8.9-3.4c-4.6,0.1-8.6,2.4-11,6h0.8
		c1.4,0,3.5-0.2,3.5-0.2c0.7-0.1,0.8,1,0.1,1.1c0,0-0.7,0.1-1.5,0.1l4.8,14.3l2.9-8.6L43,10.3l-1.4-0.1C40.9,10.1,41,9,41.6,9
		c0,0,2.2,0.2,3.5,0.2c1.4,0,3.5-0.2,3.5-0.2c0.7-0.1,0.8,1,0.1,1.1c0,0-0.7,0.1-1.5,0.1L52,24.5l1.3-4.4
		C53.9,18.2,54.3,16.9,54.3,15.8L54.3,15.8z M45.6,17.6l-4,11.5c1.2,0.3,2.5,0.6,3.7,0.6c1.6,0,3-0.3,4.4-0.7
		c-0.1-0.1-0.1-0.1-0.1-0.2L45.6,17.6z M57,10.2l0.1,1.3c0,1.3-0.2,2.8-1,4.7l-4,11.6c3.9-2.3,6.6-6.5,6.6-11.4
		C58.6,14.2,58,12.1,57,10.2L57,10.2z M45.4,1.1C37,1.1,30,8,30,16.5S37,31.8,45.4,31.8s15.4-6.9,15.4-15.4S53.9,1.1,45.4,1.1z
		 M45.4,31.2c-8.1,0-14.6-6.6-14.6-14.7c0-8.1,6.6-14.6,14.6-14.6s14.6,6.6,14.6,14.6C60.1,24.6,53.5,31.2,45.4,31.2z"/>
</g>
</svg>
